<?xml version="1.0" encoding="UTF-8" standalone="no"?>
<svg width="193px" height="187px" viewBox="0 0 193 187" version="1.1" xmlns="http://www.w3.org/2000/svg" xmlns:xlink="http://www.w3.org/1999/xlink" xmlns:sketch="http://www.bohemiancoding.com/sketch/ns">
    <!-- Generator: Sketch 3.2.2 (9983) - http://www.bohemiancoding.com/sketch -->
    <title>Slice 1</title>
    <desc>Created with Sketch.</desc>
    <defs></defs>
    <g id="Page-1" stroke="none" stroke-width="1" fill="none" fill-rule="evenodd" sketch:type="MSPage">
        <g id="icon" sketch:type="MSLayerGroup" fill="#FFFFFF">
            <path d="M0.5,32.3888889 C0.5,34.1077778 2.29,35.5 4.5,35.5 L188.5,35.5 C190.71,35.5 192.5,34.1077778 192.5,32.3888889 L192.5,0.5 L4.5,0.5 C2.29,0.5 0.5,1.89222222 0.5,3.61111111 L0.5,32.3888889 Z" id="roundedRectangle" sketch:type="MSShapeGroup"></path>
            <path d="M0.5,105.388889 C0.5,107.107778 2.29,108.5 4.5,108.5 L188.5,108.5 C190.71,108.5 192.5,107.107778 192.5,105.388889 L192.5,73.5 L4.5,73.5 C2.29,73.5 0.5,74.8922222 0.5,76.6111111 L0.5,105.388889 Z" id="roundedRectangle2" sketch:type="MSShapeGroup"></path>
            <path d="M0.5,178.388889 C0.5,180.107778 2.29,181.5 4.5,181.5 L188.5,181.5 C190.71,181.5 192.5,180.107778 192.5,178.388889 L192.5,146.5 L4.5,146.5 C2.29,146.5 0.5,147.892222 0.5,149.611111 L0.5,178.388889 Z" id="roundedRectangle3" sketch:type="MSShapeGroup"></path>
        </g>
    </g>
</svg>